{
 "accessors": [
  {
   "componentType": 5126,
   "type": "VEC3",
   "count": 144,
   "max": [
    5,
    8.100000381469727,
    7.696120262145996
   ],
   "min": [
    -5,
    7.099999904632568,
    -6.953999996185303
   ],
   "bufferView": 0
  },
  {
   "componentType": 5126,
   "type": "VEC3",
   "count": 144,
   "bufferView": 1
  },
  {
   "componentType": 5126,
   "type": "VEC2",
   "count": 144,
   "bufferView": 2
  },
  {
   "componentType": 5121,
   "type": "SCALAR",
   "count": 144,
   "bufferView": 3
  }
 ],
 "asset": {
  "version": "2.0",
  "generator": "clara.io"
 },
 "bufferViews": [
  {
   "buffer": 0,
   "byteOffset": 0,
   "byteLength": 1728,
   "target": 34962,
   "byteStride": 12
  },
  {
   "buffer": 0,
   "byteOffset": 1728,
   "byteLength": 1728,
   "target": 34962,
   "byteStride": 12
  },
  {
   "buffer": 0,
   "byteOffset": 3456,
   "byteLength": 1152,
   "target": 34962,
   "byteStride": 8
  },
  {
   "buffer": 0,
   "byteOffset": 4608,
   "byteLength": 144,
   "target": 34963
  }
 ],
 "buffers": [
  {
   "byteLength": 4752,
   "uri": "data:application/octet-stream;base64,"
  }
 ],
 "materials": [
  {
   "name": "Standard",
   "pbrMetallicRoughness": {
    "baseColorFactor": [
     0.16862745098039217,
     0.6,
     1,
     1
    ],
    "roughnessFactor": 0.1961,
    "metallicFactor": 0
   }
  }
 ],
 "meshes": [
  {
   "primitives": [
    {
     "indices": 3,
     "material": 0,
     "mode": 4,
     "attributes": {
      "POSITION": 0,
      "NORMAL": 1,
      "TEXCOORD_0": 2
     }
    }
   ]
  }
 ],
 "nodes": [
  {
   "name": "arrow",
   "children": [
    1
   ]
  },
  {
   "name": "Arrow",
   "translation": [
    2.524204730987549,
    5.472614765167236,
    2.591041088104248
   ],
   "rotation": [
    0.3958547712284604,
    -0.31739567373725086,
    0.8489133066199683,
    0.14800403845191432
   ],
   "scale": [
    0.5000000062358669,
    0.5000000126943903,
    0.5000000042262416
   ],
   "mesh": 0
  }
 ],
 "scene": 0,
 "scenes": [
  {
   "nodes": [
    0
   ]
  }
 ]
}