{
 "accessors": [
  {
   "componentType": 5126,
   "type": "VEC3",
   "count": 24,
   "max": [
    0.5,
    0.5,
    0.5
   ],
   "min": [
    -0.5,
    -0.5,
    -0.5
   ],
   "bufferView": 0
  },
  {
   "componentType": 5126,
   "type": "VEC3",
   "count": 24,
   "bufferView": 1
  },
  {
   "componentType": 5126,
   "type": "VEC2",
   "count": 24,
   "bufferView": 2
  },
  {
   "componentType": 5121,
   "type": "SCALAR",
   "count": 36,
   "bufferView": 3
  },
  {
   "componentType": 5126,
   "type": "VEC3",
   "count": 42,
   "max": [
    0.9939000010490417,
    0.5,
    0.05000000074505806
   ],
   "min": [
    -0.5,
    -0.5,
    -0.05000000074505806
   ],
   "bufferView": 4
  },
  {
   "componentType": 5126,
   "type": "VEC3",
   "count": 42,
   "bufferView": 5
  },
  {
   "componentType": 5126,
   "type": "VEC2",
   "count": 42,
   "bufferView": 6
  },
  {
   "componentType": 5121,
   "type": "SCALAR",
   "count": 60,
   "bufferView": 7
  },
  {
   "componentType": 5126,
   "type": "VEC3",
   "count": 42,
   "max": [
    0.9939000010490417,
    0.5,
    0.05000000074505806
   ],
   "min": [
    -0.5,
    -0.5,
    -0.05000000074505806
   ],
   "bufferView": 8
  },
  {
   "componentType": 5126,
   "type": "VEC3",
   "count": 42,
   "bufferView": 9
  },
  {
   "componentType": 5126,
   "type": "VEC2",
   "count": 42,
   "bufferView": 10
  },
  {
   "componentType": 5121,
   "type": "SCALAR",
   "count": 60,
   "bufferView": 11
  },
  {
   "componentType": 5126,
   "type": "VEC3",
   "count": 42,
   "max": [
    0.9939000010490417,
    0.5,
    0.05000000074505806
   ],
   "min": [
    -0.5,
    -0.5,
    -0.05000000074505806
   ],
   "bufferView": 12
  },
  {
   "componentType": 5126,
   "type": "VEC3",
   "count": 42,
   "bufferView": 13
  },
  {
   "componentType": 5126,
   "type": "VEC2",
   "count": 42,
   "bufferView": 14
  },
  {
   "componentType": 5121,
   "type": "SCALAR",
   "count": 60,
   "bufferView": 15
  }
 ],
 "asset": {
  "version": "2.0",
  "generator": "clara.io"
 },
 "bufferViews": [
  {
   "buffer": 0,
   "byteOffset": 0,
   "byteLength": 288,
   "target": 34962,
   "byteStride": 12
  },
  {
   "buffer": 0,
   "byteOffset": 288,
   "byteLength": 288,
   "target": 34962,
   "byteStride": 12
  },
  {
   "buffer": 0,
   "byteOffset": 576,
   "byteLength": 192,
   "target": 34962,
   "byteStride": 8
  },
  {
   "buffer": 0,
   "byteOffset": 768,
   "byteLength": 36,
   "target": 34963
  },
  {
   "buffer": 0,
   "byteOffset": 804,
   "byteLength": 504,
   "target": 34962,
   "byteStride": 12
  },
  {
   "buffer": 0,
   "byteOffset": 1308,
   "byteLength": 504,
   "target": 34962,
   "byteStride": 12
  },
  {
   "buffer": 0,
   "byteOffset": 1812,
   "byteLength": 336,
   "target": 34962,
   "byteStride": 8
  },
  {
   "buffer": 0,
   "byteOffset": 2148,
   "byteLength": 60,
   "target": 34963
  },
  {
   "buffer": 0,
   "byteOffset": 2208,
   "byteLength": 504,
   "target": 34962,
   "byteStride": 12
  },
  {
   "buffer": 0,
   "byteOffset": 2712,
   "byteLength": 504,
   "target": 34962,
   "byteStride": 12
  },
  {
   "buffer": 0,
   "byteOffset": 3216,
   "byteLength": 336,
   "target": 34962,
   "byteStride": 8
  },
  {
   "buffer": 0,
   "byteOffset": 3552,
   "byteLength": 60,
   "target": 34963
  },
  {
   "buffer": 0,
   "byteOffset": 3612,
   "byteLength": 504,
   "target": 34962,
   "byteStride": 12
  },
  {
   "buffer": 0,
   "byteOffset": 4116,
   "byteLength": 504,
   "target": 34962,
   "byteStride": 12
  },
  {
   "buffer": 0,
   "byteOffset": 4620,
   "byteLength": 336,
   "target": 34962,
   "byteStride": 8
  },
  {
   "buffer": 0,
   "byteOffset": 4956,
   "byteLength": 60,
   "target": 34963
  }
 ],
 "buffers": [
  {
   "byteLength": 5016,
   "uri": "data:application/octet-stream;base64,"
  }
 ],
 "materials": [
  {
   "name": "Default-Box",
   "pbrMetallicRoughness": {
    "baseColorFactor": [
     0.16862745098039217,
     0.6,
     1,
     1
    ]
   }
  },
  {
   "name": "Default-Merged_Meshes",
   "pbrMetallicRoughness": {
    "baseColorFactor": [
     0.16862745098039217,
     0.6,
     1,
     1
    ]
   }
  },
  {
   "name": "Default-Merged_Meshes1"
  },
  {
   "name": "Default-Merged_Meshes2",
   "pbrMetallicRoughness": {
    "baseColorFactor": [
     0.16862745098039217,
     0.6,
     1,
     1
    ]
   }
  }
 ],
 "meshes": [
  {
   "primitives": [
    {
     "indices": 3,
     "material": 0,
     "mode": 4,
     "attributes": {
      "POSITION": 0,
      "NORMAL": 1,
      "TEXCOORD_0": 2
     }
    }
   ]
  },
  {
   "primitives": [
    {
     "indices": 7,
     "material": 1,
     "mode": 4,
     "attributes": {
      "POSITION": 4,
      "NORMAL": 5,
      "TEXCOORD_0": 6
     }
    }
   ]
  },
  {
   "primitives": [
    {
     "indices": 11,
     "material": 2,
     "mode": 4,
     "attributes": {
      "POSITION": 8,
      "NORMAL": 9,
      "TEXCOORD_0": 10
     }
    }
   ]
  },
  {
   "primitives": [
    {
     "indices": 15,
     "material": 3,
     "mode": 4,
     "attributes": {
      "POSITION": 12,
      "NORMAL": 13,
      "TEXCOORD_0": 14
     }
    }
   ]
  }
 ],
 "nodes": [
  {
   "name": "Box",
   "translation": [
    -0.0017000000225380063,
    1.2635999917984009,
    0.27379998564720154
   ],
   "rotation": [
    -0.02970054885144178,
    0.7080941619859008,
    0.007250371614168807,
    0.70545584870915
   ],
   "scale": [
    0.20000000507255877,
    0.3200000025856447,
    0.05999999843794649
   ],
   "mesh": 0
  },
  {
   "name": "Merged_Meshes",
   "translation": [
    0,
    1.2237000465393066,
    0.07450000196695328
   ],
   "rotation": [
    -0.029700548853178677,
    0.7080941620273105,
    0.007250371614592812,
    0.7054558486678947
   ],
   "scale": [
    1.0199999885563915,
    1.000000000627629,
    0.9999999938973088
   ],
   "mesh": 1
  },
  {
   "name": "Merged_Meshes1",
   "translation": [
    0,
    1.2371000051498413,
    -0.020800000056624413
   ],
   "rotation": [
    -0.029700547533007365,
    0.7080941620273105,
    0.007250372934764125,
    0.7054558486678947
   ],
   "scale": [
    0.8599999845457776,
    0.7599999838513101,
    0.8500000424513816
   ],
   "mesh": 2
  },
  {
   "name": "Merged_Meshes2",
   "translation": [
    0,
    1.2359999418258667,
    -0.10700000077486038
   ],
   "rotation": [
    -0.029700547531270466,
    0.7080941619859008,
    0.007250371614168807,
    0.70545584870915
   ],
   "scale": [
    0.7300000222367862,
    0.6499999735811725,
    0.8500000424513816
   ],
   "mesh": 3
  }
 ],
 "scene": 0,
 "scenes": [
  {
   "nodes": [
    0,
    1,
    2,
    3
   ]
  }
 ]
}