{
 "accessors": [
  {
   "componentType": 5126,
   "type": "VEC3",
   "count": 1728,
   "max": [
    12.592743873596191,
    88.09489440917969,
    78.90692901611328
   ],
   "min": [
    -12.592692375183105,
    -66.62508392333984,
    -0.136530339717865
   ],
   "bufferView": 1
  },
  {
   "componentType": 5126,
   "type": "VEC3",
   "count": 1728,
   "bufferView": 2
  },
  {
   "componentType": 5126,
   "type": "VEC2",
   "count": 1728,
   "bufferView": 3
  },
  {
   "componentType": 5123,
   "type": "SCALAR",
   "count": 1728,
   "bufferView": 4
  }
 ],
 "asset": {
  "version": "2.0",
  "generator": "clara.io"
 },
 "bufferViews": [
  {
   "buffer": 0,
   "byteOffset": 0,
   "byteLength": 58163
  },
  {
   "buffer": 0,
   "byteOffset": 58164,
   "byteLength": 20736,
   "target": 34962,
   "byteStride": 12
  },
  {
   "buffer": 0,
   "byteOffset": 78900,
   "byteLength": 20736,
   "target": 34962,
   "byteStride": 12
  },
  {
   "buffer": 0,
   "byteOffset": 99636,
   "byteLength": 13824,
   "target": 34962,
   "byteStride": 8
  },
  {
   "buffer": 0,
   "byteOffset": 113460,
   "byteLength": 3456,
   "target": 34963
  }
 ],
 "buffers": [
  {
   "byteLength": 116916,
   "uri": "data:application/octet-stream;base64,"
  }
 ],
 "images": [
  {
   "name": "texture.png",
   "bufferView": 0,
   "mimeType": "image/png"
  }
 ],
 "materials": [
  {
   "name": "fox_material",
   "pbrMetallicRoughness": {
    "baseColorTexture": {
     "index": 0,
     "texCoord": 0
    },
    "roughnessFactor": 0.7071,
    "metallicFactor": 0
   },
   "doubleSided": true
  }
 ],
 "meshes": [
  {
   "primitives": [
    {
     "indices": 3,
     "material": 0,
     "mode": 4,
     "attributes": {
      "POSITION": 0,
      "NORMAL": 1,
      "TEXCOORD_0": 2
     }
    }
   ]
  }
 ],
 "nodes": [
  {
   "name": "animations",
   "children": [
    3
   ]
  },
  {
   "name": "CameraPreset"
  },
  {
   "name": "LightPreset"
  },
  {
   "name": "fox1",
   "rotation": [
    -0.7071067811865475,
    0,
    0,
    0.7071067811865476
   ],
   "mesh": 0
  }
 ],
 "samplers": [
  {
   "magFilter": 9729,
   "minFilter": 9987,
   "wrapS": 10497,
   "wrapT": 10497
  }
 ],
 "scene": 0,
 "scenes": [
  {
   "nodes": [
    0,
    1,
    2
   ]
  }
 ],
 "textures": [
  {
   "sampler": 0,
   "source": 0
  }
 ]
}